#!OML:ASF F:\twosubjects\two\wednesday\Session 1\rory1.ASF
:FULLY-SPECIFIED
:DEGREES
99
root 19.2122 18.8983 5.04227 -176.071 11.2621 -179.842
lowerback -2.21277 3.79698 4.58457
upperback -0.890589 5.0235 1.13115
thorax 0.610504 2.53552 -1.2469
lowerneck -13.6823 -1.67961 -2.71265
upperneck 19.6562 -0.774956 -1.76772
head 8.38293 -0.530988 -0.195315
rclavicle 6.44249e-014 2.38542e-014
rhumerus 28.5933 15.9644 -58.7525
rradius 37.6933
rwrist 7.98988
rhand 2.15371 37.5031
rfingers 7.12502
rthumb 27.6516 9.51539
lclavicle 6.44249e-014 2.38542e-014
lhumerus 41.4003 -8.35999 38.9951
lradius 26.3606
lwrist -4.97456
lhand -12.6085 15.5677
lfingers 7.12502
lthumb 13.4705 45.1121
rfemur 3.46189 9.68244 21.6048
rtibia 17.2377
rfoot -11.2978 2.2677
rtoes 3.9222
lfemur -26.5272 -12.4573 -3.29102
ltibia 18.5771
lfoot -7.06467 15.7888
ltoes -18.0717
100
root 19.2783 18.8615 5.10261 -174.549 8.16736 -179.945
lowerback -1.43961 2.47196 3.05802
upperback -1.94456 3.38429 1.37738
thorax -1.09753 1.70263 -0.2808
lowerneck -13.7351 -1.63853 -2.60435
upperneck 19.6106 -0.727954 -1.87824
head 8.3757 -0.515706 -0.245729
rclavicle -2.77988e-014 1.82882e-014
rhumerus 28.6681 16.2131 -58.4394
rradius 37.6062
rwrist 7.95041
rhand 2.23115 37.7337
rfingers 7.12502
rthumb 27.7256 9.75789
lclavicle -2.77988e-014 1.82882e-014
lhumerus 41.3245 -8.17969 38.5162
lradius 26.2266
lwrist -4.4186
lhand -12.5588 16.0418
lfingers 7.12502
lthumb 13.5185 45.5831
rfemur 2.15501 8.47818 22.3928
rtibia 17.0336
rfoot -10.88 -0.414181
rtoes 2.89503
lfemur -30.0244 -9.01669 -4.19316
ltibia 17.7121
lfoot -3.28514 11.0401
ltoes -20.1627
101
root 19.2849 18.8427 5.04067 -173.291 6.77292 -180.096
lowerback -1.88437 1.71467 2.57279
upperback -2.44127 2.3994 1.41202
thorax -1.40561 1.2217 0.0218284
lowerneck -14.1349 -1.56178 -2.67192
upperneck 19.7879 -0.593994 -1.88172
head 8.50862 -0.465788 -0.224406
rclavicle -5.11871e-015 4.77083e-015
rhumerus 28.8586 16.4466 -58.0921
rradius 37.6638
rwrist 7.98245
rhand 2.91849 37.3258
rfingers 7.12502
rthumb 28.3827 9.45752
lclavicle -5.11871e-015 4.77083e-015
lhumerus 41.239 -7.69267 38.1679
lradius 25.9833
lwrist -3.95995
lhand -13.2244 15.763
lfingers 7.12502
lthumb 12.8769 45.3458
rfemur 1.42132 7.61168 22.3892
rtibia 16.3357
rfoot -10.5295 -1.57554
rtoes 2.28116
lfemur -32.5884 -9.41923 -4.29753
ltibia 17.1996
lfoot -2.80816 11.0181
ltoes -19.4073
102
root 19.2462 18.8446 4.8206 -173.885 9.25586 -179.462
lowerback -2.16679 2.25987 3.48025
upperback -1.89318 3.06933 1.4195
thorax -0.627658 1.55054 -0.440885
lowerneck -14.2566 -1.56873 -2.7136
upperneck 19.6018 -0.613933 -1.91001
head 8.46805 -0.490243 -0.230819
rclavicle -4.36954e-014 -2.38542e-015
rhumerus 28.9339 16.6363 -57.8844
rradius 37.8372
rwrist 7.81252
rhand 3.72013 36.385
rfingers 7.12502
rthumb 29.1485 8.64687
lclavicle -4.36954e-014 -2.38542e-015
lhumerus 41.1395 -7.08603 37.8117
lradius 25.7339
lwrist -4.1675
lhand -14.9075 16.3661
lfingers 7.12502
lthumb 11.254 46.0442
rfemur 2.77266 8.25293 22.5348
rtibia 16.1581
rfoot -10.7847 -0.322551
rtoes 0.907724
lfemur -31.0745 -10.163 -3.41609
ltibia 16.4757
lfoot -4.76835 14.0358
ltoes -19.9843
103
root 19.2138 18.8385 4.6212 -174.648 11.0796 -179.012
lowerback -1.94584 2.59096 4.15955
upperback -1.43435 3.48065 1.42165
thorax -0.227563 1.75449 -0.803195
lowerneck -14.3313 -1.60663 -2.89873
upperneck 19.4824 -0.676624 -1.7542
head 8.4432 -0.524423 -0.156198
rclavicle -3.2551e-014 -1.59028e-015
rhumerus 28.843 17.0485 -57.337
rradius 38.2247
rwrist 7.26949
rhand 3.78455 35.7782
rfingers 7.12502
rthumb 29.21 8.05076
lclavicle -3.2551e-014 -1.59028e-015
lhumerus 41.0027 -6.92024 37.0428
lradius 25.7114
lwrist -3.81662
lhand -16.4544 16.8816
lfingers 7.12502
lthumb 9.76176 46.6353
rfemur 4.6665 8.76538 22.6455
rtibia 15.1765
rfoot -10.5978 0.595753
rtoes 1.62473
lfemur -29.9258 -11.2632 -2.86311
ltibia 16.2956
lfoot -6.74812 16.7447
ltoes -19.966
104
root 19.1943 18.8228 4.45635 -174.963 12.2855 -178.716
lowerback -1.637 2.71726 4.44765
upperback -1.33325 3.65721 1.46079
thorax -0.273883 1.8403 -0.931518
lowerneck -14.4737 -1.62909 -3.0424
upperneck 19.6735 -0.674218 -1.68234
head 8.53525 -0.528093 -0.109432
rclavicle 2.41648e-014 -2.46493e-014
rhumerus 28.673 17.4657 -56.8228
rradius 38.4978
rwrist 6.95223
rhand 3.75607 35.6905
rfingers 7.12502
rthumb 29.1828 7.95832
lclavicle 2.41648e-014 -2.46493e-014
lhumerus 40.7145 -6.98564 36.3348
lradius 25.721
lwrist -3.1625
lhand -15.8341 15.8619
lfingers 7.12502
lthumb 10.3602 45.5867
rfemur 6.2481 9.01641 22.7184
rtibia 13.6836
rfoot -10.0618 1.14069
rtoes 2.39826
lfemur -29.7131 -11.6396 -2.69151
ltibia 16.4599
lfoot -7.90267 18.5797
ltoes -19.6304
105
root 19.1835 18.8061 4.3105 -174.784 13.072 -178.525
lowerback -1.77677 2.71035 4.41544
upperback -1.35823 3.64396 1.5097
thorax -0.227207 1.83585 -0.857364
lowerneck -14.5252 -1.6552 -2.95331
upperneck 19.6261 -0.702341 -1.84874
head 8.52772 -0.555082 -0.184077
rclavicle 3.41661e-015 6.36111e-015
rhumerus 28.5705 17.7363 -56.5403
rradius 38.6351
rwrist 6.14431
rhand 3.5998 35.3273
rfingers 7.12502
rthumb 29.0336 7.56931
lclavicle 3.41661e-015 6.36111e-015
lhumerus 40.5398 -6.68989 36.0705
lradius 25.5822
lwrist -2.94026
lhand -14.8612 15.5181
lfingers 7.12502
lthumb 11.2986 45.1938
rfemur 7.0456 9.08462 22.714
rtibia 12.6834
rfoot -9.61349 1.40737
rtoes 2.42192
lfemur -30.0937 -11.9116 -2.50649
ltibia 16.3882
lfoot -9.0028 20.0751
ltoes -18.3549
106
root 19.1734 18.7944 4.16668 -174.567 13.8134 -178.373
lowerback -1.97808 2.65802 4.30224
upperback -1.34076 3.56502 1.57283
thorax -0.111013 1.80036 -0.720943
lowerneck -14.6179 -1.62833 -2.91066
upperneck 19.4093 -0.672934 -1.97343
head 8.47039 -0.557903 -0.230657
rclavicle 1.38901e-014 -9.54166e-015
rhumerus 28.5958 18.0436 -56.2306
rradius 38.8297
rwrist 4.88764
rhand 3.30685 34.8889
rfingers 7.12502
rthumb 28.7537 7.08302
lclavicle 1.38901e-014 -9.54166e-015
lhumerus 40.4025 -5.7014 36.4877
lradius 25.2668
lwrist -3.71573
lhand -14.3401 15.7387
lfingers 7.12502
lthumb 11.8011 45.3862
rfemur 7.56955 8.98889 22.6368
rtibia 12.1113
rfoot -9.35146 1.79287
rtoes 2.80957
lfemur -30.4578 -12.7864 -2.06287
ltibia 16.1808
lfoot -11.1028 21.6799
ltoes -14.5042
107
root 19.1608 18.7763 4.01837 -174.392 14.7395 -177.971
lowerback -1.90178 2.69322 4.53572
upperback -1.40474 3.62029 1.61189
thorax -0.205945 1.82618 -0.814871
lowerneck -14.5385 -1.56447 -2.8156
upperneck 19.1491 -0.63341 -1.99576
head 8.36687 -0.538718 -0.248701
rclavicle 3.84773e-014 1.98785e-014
rhumerus 28.6377 17.5023 -56.6439
rradius 38.5864
rwrist 5.95337
rhand 3.80122 35.6565
rfingers 7.12502
rthumb 29.2259 7.93183
lclavicle 3.84773e-014 1.98785e-014
lhumerus 40.2666 -4.85937 36.8025
lradius 25.0253
lwrist -4.82054
lhand -14.1838 16.2816
lfingers 7.12502
lthumb 11.9519 45.9204
rfemur 8.04071 8.89712 22.8095
rtibia 11.7766
rfoot -9.22642 2.16869
rtoes 2.639
lfemur -30.5396 -13.1522 -1.58475
ltibia 15.9112
lfoot -12.8515 22.9587
ltoes -12.3986
108
root 19.1489 18.7509 3.86728 -174.197 15.4785 -177.554
lowerback -1.97359 2.73245 4.82641
upperback -1.41289 3.66514 1.58184
thorax -0.152787 1.84804 -1.00146
lowerneck -14.5042 -1.49181 -2.5688
upperneck 18.949 -0.608951 -2.03516
head 8.29074 -0.517949 -0.299729
rclavicle -2.37796e-014 -3.61788e-014
rhumerus 28.4284 17.6524 -55.9319
rradius 38.792
rwrist 5.8736
rhand 3.42262 35.7048
rfingers 7.12502
rthumb 28.8643 7.91775
lclavicle -2.37796e-014 -3.61788e-014
lhumerus 40.3507 -4.60015 36.384
lradius 24.9374
lwrist -5.12035
lhand -15.0912 16.4556
lfingers 7.12502
lthumb 11.0768 46.1433
rfemur 8.5546 8.87707 23.0786
rtibia 11.4518
rfoot -9.05099 2.15283
rtoes 1.07565
lfemur -30.6027 -12.5657 -1.59556
ltibia 15.6896
lfoot -13.175 23.5924
ltoes -14.0164
109
root 19.1387 18.731 3.71193 -174.101 16.0631 -177.51
lowerback -2.13733 2.66765 4.66645
upperback -1.37557 3.56548 1.55388
thorax -0.0353777 1.80031 -0.934423
lowerneck -14.7452 -1.41555 -2.47502
upperneck 19.0626 -0.482404 -2.19298
head 8.37163 -0.4715 -0.355906
rclavicle -5.56721e-014 0
rhumerus 28.5124 17.0683 -56.4101
rradius 38.5308
rwrist 6.46263
rhand 3.12519 36.1896
rfingers 7.12502
rthumb 28.5802 8.35443
lclavicle -5.56721e-014 0
lhumerus 40.32 -4.21075 36.1681
lradius 24.7322
lwrist -5.0309
lhand -15.827 15.4958
lfingers 7.12502
lthumb 10.367 45.2202
rfemur 9.17083 8.60992 22.9198
rtibia 11.052
rfoot -8.90164 2.29184
rtoes -1.07282
lfemur -30.7047 -12.3519 -1.92309
ltibia 15.5879
lfoot -13.7258 24.1123
ltoes -14.3962
